<?xml version="1.0" encoding="UTF-8"?>
<svg version="1.1" xmlns="http://www.w3.org/2000/svg" width="500" height="500">
<path d="M0 0 C165 0 330 0 500 0 C500 165 500 330 500 500 C335 500 170 500 0 500 C0 335 0 170 0 0 Z " fill="#FEFEFE" transform="translate(0,0)"/>
<path d="M0 0 C1.43158447 -0.00945648 1.43158447 -0.00945648 2.89208984 -0.019104 C3.92543457 -0.01505554 4.9587793 -0.01100708 6.0234375 -0.00683594 C7.08127441 -0.00874939 8.13911133 -0.01066284 9.22900391 -0.01263428 C11.46842689 -0.01399696 13.70785776 -0.01029476 15.94726562 -0.00195312 C19.38429427 0.00874504 22.8208002 -0.00184581 26.2578125 -0.01464844 C28.42968866 -0.01332686 30.60156449 -0.0107645 32.7734375 -0.00683594 C33.80678223 -0.0108844 34.84012695 -0.01493286 35.90478516 -0.019104 C36.8591748 -0.01279968 37.81356445 -0.00649536 38.796875 0 C39.63911621 0.00159119 40.48135742 0.00318237 41.34912109 0.00482178 C43.3984375 0.25878906 43.3984375 0.25878906 45.3984375 2.25878906 C45.64449765 5.26765631 45.77224532 8.19096658 45.8125 11.20410156 C45.83186615 12.08911346 45.8512323 12.97412537 45.8711853 13.88595581 C45.93106473 16.71846822 45.97739963 19.5510211 46.0234375 22.38378906 C46.06160961 24.30177574 46.10066088 26.21974514 46.140625 28.13769531 C46.23677305 32.84458654 46.32077292 37.55155803 46.3984375 42.25878906 C48.3784375 42.25878906 50.3584375 42.25878906 52.3984375 42.25878906 C52.41825684 41.05754395 52.43807617 39.85629883 52.45849609 38.61865234 C52.5344337 34.17182052 52.62316882 29.72532102 52.71582031 25.27880859 C52.75415918 23.35244293 52.78900332 21.42600446 52.8203125 19.49951172 C52.86585695 16.73410989 52.92386787 13.96921137 52.984375 11.20410156 C52.99592621 10.33947296 53.00747742 9.47484436 53.01937866 8.58401489 C53.17069409 2.48653248 53.17069409 2.48653248 55.3984375 0.25878906 C57.44775391 0.00482178 57.44775391 0.00482178 60 0 C61.43158447 -0.00945648 61.43158447 -0.00945648 62.89208984 -0.019104 C63.92543457 -0.01505554 64.9587793 -0.01100708 66.0234375 -0.00683594 C67.08127441 -0.00874939 68.13911133 -0.01066284 69.22900391 -0.01263428 C71.46842689 -0.01399696 73.70785776 -0.01029476 75.94726562 -0.00195312 C79.38429427 0.00874504 82.8208002 -0.00184581 86.2578125 -0.01464844 C88.42968866 -0.01332686 90.60156449 -0.0107645 92.7734375 -0.00683594 C93.80678223 -0.0108844 94.84012695 -0.01493286 95.90478516 -0.019104 C96.8591748 -0.01279968 97.81356445 -0.00649536 98.796875 0 C99.63911621 0.00159119 100.48135742 0.00318237 101.34912109 0.00482178 C103.3984375 0.25878906 103.3984375 0.25878906 105.3984375 2.25878906 C107.62544257 16.22481024 104.90222636 29.65911436 100.27587891 42.75878906 C98.74331578 47.12535734 97.34528512 51.53095308 95.9609375 55.94628906 C95.69007324 56.74768311 95.41920898 57.54907715 95.14013672 58.37475586 C92.27011909 67.4511154 94.35320422 74.96942602 97.1484375 83.82128906 C97.41285645 84.69624023 97.67727539 85.57119141 97.94970703 86.47265625 C99.16085002 90.45181543 100.4152129 94.38689926 101.90625 98.27050781 C104.99700419 106.72151284 105.85720708 114.09901869 105.8984375 123.07128906 C105.90786377 124.65731934 105.90786377 124.65731934 105.91748047 126.27539062 C105.79236002 133.74617472 105.79236002 133.74617472 104.15441895 135.87763977 C101.92007035 137.63504387 100.70484311 137.63856869 97.8828125 137.64697266 C96.51624512 137.66115738 96.51624512 137.66115738 95.12207031 137.67562866 C94.14077148 137.66955597 93.15947266 137.66348328 92.1484375 137.65722656 C91.1387793 137.66009674 90.12912109 137.66296692 89.08886719 137.66592407 C86.95377034 137.66796594 84.81865484 137.66242752 82.68359375 137.64990234 C79.41103379 137.63385085 76.13970894 137.64974731 72.8671875 137.66894531 C70.7942681 137.6669629 68.72134947 137.66311928 66.6484375 137.65722656 C65.66713867 137.66329926 64.68583984 137.66937195 63.67480469 137.67562866 C62.76375977 137.66617218 61.85271484 137.6567157 60.9140625 137.64697266 C59.71185059 137.64339249 59.71185059 137.64339249 58.48535156 137.63973999 C55.84091909 137.15701815 54.96450339 136.42368381 53.3984375 134.25878906 C53.06700282 131.25341946 52.90967994 128.44433178 52.88671875 125.43457031 C52.86876755 124.5731694 52.85081635 123.71176849 52.83232117 122.82426453 C52.77814452 120.07332249 52.74429927 117.32255465 52.7109375 114.57128906 C52.67777087 112.70603041 52.64328183 110.84079476 52.60742188 108.97558594 C52.52241394 104.40344588 52.45563807 99.83135815 52.3984375 95.25878906 C50.74229093 94.87660139 49.07386726 94.54483805 47.3984375 94.25878906 C45.30994543 96.34728113 46.21263977 100.89510559 46.1875 103.78222656 C46.15943131 105.54265253 46.13076684 107.30306907 46.1015625 109.06347656 C46.06027203 111.85058328 46.02340231 114.63751421 45.99707031 117.42480469 C45.96950886 120.10681899 45.92363592 122.78802286 45.875 125.46972656 C45.87174713 126.30418304 45.86849426 127.13863953 45.86514282 127.99838257 C45.74190108 133.78130466 45.74190108 133.78130466 44.16136169 135.97857666 C41.89545134 137.62405101 40.56204795 137.63888306 37.77514648 137.64697266 C36.84085312 137.65642914 35.90655975 137.66588562 34.94395447 137.67562866 C33.43448997 137.66651962 33.43448997 137.66651962 31.89453125 137.65722656 C30.34319237 137.66153183 30.34319237 137.66153183 28.76051331 137.66592407 C26.57414197 137.6679659 24.38775242 137.66242781 22.20141602 137.64990234 C18.84545296 137.63383462 15.49069137 137.64975594 12.13476562 137.66894531 C10.01301816 137.66696322 7.89127145 137.66312026 5.76953125 137.65722656 C4.76119736 137.66329926 3.75286346 137.66937195 2.713974 137.67562866 C1.78283279 137.66617218 0.85169159 137.6567157 -0.10766602 137.64697266 C-0.92912613 137.64458588 -1.75058624 137.6421991 -2.59693909 137.63973999 C-3.25846481 137.51402618 -3.91999054 137.38831238 -4.6015625 137.25878906 C-6.83864717 133.90316206 -6.85247653 132.82001748 -6.85552979 128.9002533 C-6.86398926 127.23240028 -6.86398926 127.23240028 -6.87261963 125.53085327 C-6.86857117 124.3104837 -6.86452271 123.09011414 -6.86035156 121.83276367 C-6.8638562 120.54806686 -6.86736084 119.26337006 -6.87097168 117.93974304 C-6.88009702 114.41506713 -6.87655111 110.89050817 -6.87021351 107.36583018 C-6.86515534 103.68053414 -6.86984435 99.99524821 -6.87298584 96.30995178 C-6.87662556 90.1218994 -6.87182576 83.93389475 -6.86230469 77.74584961 C-6.8514153 70.58567863 -6.85494917 63.42562151 -6.8659575 56.26545328 C-6.87502448 50.12272729 -6.87631869 43.98003564 -6.87108016 37.83730513 C-6.86795782 34.16632283 -6.86755841 30.49539409 -6.87415314 26.82441521 C-6.88098687 22.73468115 -6.87152352 18.64514439 -6.86035156 14.55541992 C-6.86440002 13.33302612 -6.86844849 12.11063232 -6.87261963 10.85119629 C-6.86697998 9.74211411 -6.86134033 8.63303192 -6.85552979 7.49034119 C-6.85477573 6.52266784 -6.85402168 5.55499449 -6.85324478 4.5579977 C-6.36226132 0.07268625 -3.90508822 0.00737761 0 0 Z " fill="#1F1D1D" transform="translate(200.6015625,155.7412109375)"/>
<path d="M0 0 C3.16872216 0.68885264 4.96142228 2.13674555 7.15625 4.46875 C9.24476148 8.64577296 8.60100888 13.92034916 8.15625 18.46875 C6.89419781 21.66874014 5.30587054 23.89393973 2.15625 25.46875 C-4.97605769 26.17028846 -4.97605769 26.17028846 -8.78125 23.09375 C-12.8289499 17.94213194 -12.54986509 12.84870756 -11.84375 6.46875 C-9.72018818 0.83354205 -5.61574189 -0.37438279 0 0 Z " fill="#312F2F" transform="translate(265.84375,315.53125)"/>
<path d="M0 0 C1.09828125 -0.00580078 1.09828125 -0.00580078 2.21875 -0.01171875 C5.84307644 1.09916213 7.27017334 2.6287849 9.5 5.6875 C10.09439166 8.98457366 9.97421335 12.16372918 9.8125 15.5 C9.78994141 16.38365234 9.76738281 17.26730469 9.74414062 18.17773438 C9.68547428 20.3483891 9.59579979 22.5181669 9.5 24.6875 C7.5625 25.25 7.5625 25.25 5.5 25.6875 C4.5 24.6875 4.5 24.6875 4.4375 22.125 C4.458125 21.320625 4.47875 20.51625 4.5 19.6875 C1.86 19.6875 -0.78 19.6875 -3.5 19.6875 C-3.5 21.3375 -3.5 22.9875 -3.5 24.6875 C-5.15614657 25.06968767 -6.82457024 25.40145102 -8.5 25.6875 C-10.65498045 23.53251955 -9.82388329 18.96709293 -9.875 16 C-9.91238281 15.19626953 -9.94976562 14.39253906 -9.98828125 13.56445312 C-10.04959905 9.39824919 -9.8463151 6.52141077 -7.2578125 3.1484375 C-3.59480841 -0.12024887 -3.59480841 -0.12024887 0 0 Z " fill="#2C2B2B" transform="translate(237.5,315.3125)"/>
<path d="M0 0 C0.99 0.33 1.98 0.66 3 1 C2.91548357 3.87355849 2.45477932 5.54298589 0.41015625 7.59765625 C-0.8447597 8.6421364 -2.11675301 9.66649466 -3.40625 10.66796875 C-5.13113625 11.92936016 -5.13113625 11.92936016 -6 14 C-5.46375 14.20625 -4.9275 14.4125 -4.375 14.625 C-1.12661111 16.5056462 1.91978735 18.83807678 4 22 C3.66796875 24.1953125 3.66796875 24.1953125 3 26 C-0.66060821 25.41463247 -2.54535164 23.916761 -5.25 21.4375 C-5.95640625 20.79683594 -6.6628125 20.15617187 -7.390625 19.49609375 C-7.92171875 19.00238281 -8.4528125 18.50867188 -9 18 C-9.33 20.31 -9.66 22.62 -10 25 C-11.9375 25.5625 -11.9375 25.5625 -14 26 C-15 25 -15 25 -15.11352539 22.68334961 C-15.10828857 21.68311768 -15.10305176 20.68288574 -15.09765625 19.65234375 C-15.09443359 18.57275391 -15.09121094 17.49316406 -15.08789062 16.38085938 C-15.07951172 15.24455078 -15.07113281 14.10824219 -15.0625 12.9375 C-15.05798828 11.79732422 -15.05347656 10.65714844 -15.04882812 9.48242188 C-15.03699747 6.65489649 -15.0205141 3.8274736 -15 1 C-13.35 1 -11.7 1 -10 1 C-9.67 3.31 -9.34 5.62 -9 8 C-6.03 5.36 -3.06 2.72 0 0 Z " fill="#272626" transform="translate(219,315)"/>
<path d="M0 0 C0.66 1.32 1.32 2.64 2 4 C0 6 0 6 -2.3828125 6.1953125 C-3.28773438 6.17210937 -4.19265625 6.14890625 -5.125 6.125 C-6.49011719 6.09792969 -6.49011719 6.09792969 -7.8828125 6.0703125 C-8.58148438 6.04710937 -9.28015625 6.02390625 -10 6 C-9.67 7.32 -9.34 8.64 -9 10 C-8.37351562 10.12117188 -7.74703125 10.24234375 -7.1015625 10.3671875 C-5.87566406 10.61855469 -5.87566406 10.61855469 -4.625 10.875 C-3.81289063 11.03742188 -3.00078125 11.19984375 -2.1640625 11.3671875 C0 12 0 12 2 14 C2.78152069 20.92204042 2.78152069 20.92204042 0.1875 24.5 C-4.50035336 26.70604864 -8.90443735 26.32126139 -14 26 C-14.5625 24.0625 -14.5625 24.0625 -15 22 C-13.33657163 20.33657163 -11.2174291 20.63951903 -8.9375 20.4375 C-7.55884766 20.31181641 -7.55884766 20.31181641 -6.15234375 20.18359375 C-5.44207031 20.12300781 -4.73179687 20.06242187 -4 20 C-3.67 18.68 -3.34 17.36 -3 16 C-4.03125 16.103125 -5.0625 16.20625 -6.125 16.3125 C-11.29924706 15.89522201 -12.65468951 14.93073983 -16 11 C-16.22098315 6.80132023 -15.67638084 4.85093074 -13.0625 1.5625 C-8.70740598 -0.65948675 -4.79719226 -0.33533771 0 0 Z " fill="#2F2E2E" transform="translate(295,315)"/>
<path d="M0 0 C3.33827479 0.16974279 4.99575025 0.32398094 7.6875 2.1875 C8.91934766 4.65119532 8.85482342 6.3769501 8.875 9.125 C8.88917969 10.00027344 8.90335938 10.87554687 8.91796875 11.77734375 C8.6875 14.1875 8.6875 14.1875 6.6875 17.1875 C3.19365721 18.35211426 0.35094611 18.32318319 -3.3125 18.1875 C-5.13366003 16.36633997 -4.4448508 13.88078236 -4.44921875 11.4609375 C-4.44535156 10.71070313 -4.44148437 9.96046875 -4.4375 9.1875 C-4.44136719 8.43726563 -4.44523438 7.68703125 -4.44921875 6.9140625 C-4.43719185 0.2511618 -4.43719185 0.2511618 0 0 Z " fill="#2E2C2C" transform="translate(162.3125,226.8125)"/>
<path d="M0 0 C3.38069946 0.98347621 4.40394956 1.29465165 6.4375 4 C7.2767962 8.52917501 7.25625537 12.67739518 4.8125 16.625 C1.68324008 18.43667679 -0.00446446 18.66713166 -3.5625 18 C-6.05619699 15.90004464 -7.30595547 14.29842946 -7.9453125 11.0625 C-8.15472492 7.37684143 -7.69982275 5.2691526 -6 1.9375 C-3.5625 0 -3.5625 0 0 0 Z " fill="#353434" transform="translate(351.5625,202)"/>
<path d="M0 0 C0 1.32 0 2.64 0 4 C-2.31 4 -4.62 4 -7 4 C-7 4.99 -7 5.98 -7 7 C-6.236875 6.938125 -5.47375 6.87625 -4.6875 6.8125 C-2 7 -2 7 -0.125 8.0625 C1.67936761 11.17002199 0.81177938 13.62799333 0 17 C-3.21451269 18.60725635 -6.43612536 18.05748185 -10 18 C-10 16.68 -10 15.36 -10 14 C-7.36 14 -4.72 14 -2 14 C-2 13.01 -2 12.02 -2 11 C-2.928125 11.061875 -3.85625 11.12375 -4.8125 11.1875 C-8 11 -8 11 -9.875 9.8125 C-11.40659584 7.34492892 -11.42822025 5.85480169 -11 3 C-8.63169142 -1.2925593 -4.30785219 -0.21186158 0 0 Z " fill="#383636" transform="translate(169,201)"/>
<path d="M0 0 C3.3 0 6.6 0 10 0 C10 1.32 10 2.64 10 4 C7.69 4 5.38 4 3 4 C3 4.99 3 5.98 3 7 C4.98 7 6.96 7 9 7 C9 8.32 9 9.64 9 11 C7.02 11 5.04 11 3 11 C3 11.99 3 12.98 3 14 C5.31 14 7.62 14 10 14 C10 15.32 10 16.64 10 18 C6.7 18 3.4 18 0 18 C0 12.06 0 6.12 0 0 Z " fill="#323030" transform="translate(144,201)"/>
<path d="M0 0 C2.5625 0.3125 2.5625 0.3125 4.375 1.5 C6.02617863 4.02022002 6.05716958 5.3444825 5.5625 8.3125 C3.5625 11.125 3.5625 11.125 1.5625 13.3125 C2.8825 13.9725 4.2025 14.6325 5.5625 15.3125 C5.2325 16.3025 4.9025 17.2925 4.5625 18.3125 C1.2625 18.3125 -2.0375 18.3125 -5.4375 18.3125 C-5.4375 13.95690008 -5.28493884 13.67910038 -2.5 10.75 C-0.34321439 8.46064601 0.54231518 7.37305445 1.5625 4.3125 C0.2425 4.3125 -1.0775 4.3125 -2.4375 4.3125 C-2.7675 5.3025 -3.0975 6.2925 -3.4375 7.3125 C-4.0975 7.3125 -4.7575 7.3125 -5.4375 7.3125 C-4.3713843 0.56043388 -4.3713843 0.56043388 0 0 Z " fill="#323030" transform="translate(351.4375,226.6875)"/>
<path d="M0 0 C2.5625 0.3125 2.5625 0.3125 4.375 1.5 C6.02617863 4.02022002 6.05716958 5.3444825 5.5625 8.3125 C3.5625 11.125 3.5625 11.125 1.5625 13.3125 C2.8825 13.9725 4.2025 14.6325 5.5625 15.3125 C5.2325 16.3025 4.9025 17.2925 4.5625 18.3125 C1.2625 18.3125 -2.0375 18.3125 -5.4375 18.3125 C-5.4375 13.95690008 -5.28493884 13.67910038 -2.5 10.75 C-0.34321439 8.46064601 0.54231518 7.37305445 1.5625 4.3125 C0.2425 4.3125 -1.0775 4.3125 -2.4375 4.3125 C-2.7675 5.3025 -3.0975 6.2925 -3.4375 7.3125 C-4.0975 7.3125 -4.7575 7.3125 -5.4375 7.3125 C-4.3713843 0.56043388 -4.3713843 0.56043388 0 0 Z " fill="#323030" transform="translate(336.4375,226.6875)"/>
<path d="M0 0 C2.5625 0.3125 2.5625 0.3125 4.375 1.5 C6.02617863 4.02022002 6.05716958 5.3444825 5.5625 8.3125 C3.5625 11.125 3.5625 11.125 1.5625 13.3125 C2.8825 13.9725 4.2025 14.6325 5.5625 15.3125 C5.2325 16.3025 4.9025 17.2925 4.5625 18.3125 C1.2625 18.3125 -2.0375 18.3125 -5.4375 18.3125 C-5.4375 13.95690008 -5.28493884 13.67910038 -2.5 10.75 C-0.34321439 8.46064601 0.54231518 7.37305445 1.5625 4.3125 C0.2425 4.3125 -1.0775 4.3125 -2.4375 4.3125 C-2.7675 5.3025 -3.0975 6.2925 -3.4375 7.3125 C-4.0975 7.3125 -4.7575 7.3125 -5.4375 7.3125 C-4.3713843 0.56043388 -4.3713843 0.56043388 0 0 Z " fill="#323030" transform="translate(335.4375,201.6875)"/>
<path d="M0 0 C3 0.125 3 0.125 4 1.125 C4.12514928 3.10119447 4.1757276 5.08238173 4.1875 7.0625 C4.20167969 8.14402344 4.21585937 9.22554688 4.23046875 10.33984375 C4 13.125 4 13.125 2 15.125 C-2.55555556 14.56944444 -2.55555556 14.56944444 -4 13.125 C-4.09873816 11.12700428 -4.12971799 9.12542842 -4.125 7.125 C-4.12757813 6.031875 -4.13015625 4.93875 -4.1328125 3.8125 C-3.94533097 0.01875601 -3.83780055 0.15990836 0 0 Z " fill="#FAFAFA" transform="translate(264,320.875)"/>
<path d="M0 0 C4.29 0 8.58 0 13 0 C13 1.32 13 2.64 13 4 C11.35 4 9.7 4 8 4 C8 8.62 8 13.24 8 18 C7.01 18 6.02 18 5 18 C5 13.38 5 8.76 5 4 C3.35 4 1.7 4 0 4 C0 2.68 0 1.36 0 0 Z " fill="#2F2D2D" transform="translate(141,227)"/>
<path d="M0 0 C2.5625 0.1875 2.5625 0.1875 4.5625 2.1875 C4.6875 5.3125 4.6875 5.3125 4.5625 8.1875 C1.9225 8.1875 -0.7175 8.1875 -3.4375 8.1875 C-3.47991723 5.85455225 -3.47842937 3.52047433 -3.4375 1.1875 C-2.4375 0.1875 -2.4375 0.1875 0 0 Z " fill="#F8F8F8" transform="translate(237.4375,320.8125)"/>
<path d="M0 0 C1.65 0 3.3 0 5 0 C6 1 6 1 6.1328125 2.8125 C6.13023437 3.534375 6.12765625 4.25625 6.125 5 C6.12757813 5.721875 6.13015625 6.44375 6.1328125 7.1875 C6 9 6 9 5 10 C3.35 10 1.7 10 0 10 C0 6.7 0 3.4 0 0 Z " fill="#EEEDED" transform="translate(162,231)"/>
<path d="M0 0 C1.67542976 0.28604898 3.34385343 0.61781233 5 1 C5 3.64 5 6.28 5 9 C3.34385343 9.38218767 1.67542976 9.71395102 0 10 C-1 9 -1 9 -1.1328125 7.1875 C-1.13023437 6.465625 -1.12765625 5.74375 -1.125 5 C-1.12757813 4.278125 -1.13015625 3.55625 -1.1328125 2.8125 C-1 1 -1 1 0 0 Z " fill="#F9F9F9" transform="translate(349,206)"/>
</svg>
